<svg width="748" height="161" viewBox="0 0 748 161" fill="none" xmlns="http://www.w3.org/2000/svg">
<path d="M642.733 48.0023C588.699 61.4981 591.344 100.342 599.42 118.076C614.858 112.194 634.728 84.7696 642.733 71.7929C633.641 97.2272 613.5 116.13 604.566 122.402C630.297 131.226 649.958 115.607 655.813 104.883C663.96 89.9603 658.457 55.4999 654.097 40C652.21 44.6716 645.735 47.2814 642.733 48.0023Z" fill="#3A7A66" stroke="#3A7A66"/>
<path d="M72.192 118.088C70.0587 119.112 67.84 120.136 65.536 121.16C63.3173 122.099 60.928 122.952 58.368 123.72C55.808 124.403 52.992 124.957 49.92 125.384C46.9333 125.811 43.648 126.024 40.064 126.024C28.6293 126.024 19.7973 123.464 13.568 118.344C7.424 113.224 4.352 104.691 4.352 92.744C4.352 85.832 5.41867 79.3467 7.552 73.288C9.68533 67.144 12.8427 61.8107 17.024 57.288C21.2053 52.68 26.368 49.0533 32.512 46.408C38.656 43.7627 45.696 42.44 53.632 42.44C57.3867 42.44 60.8 42.696 63.872 43.208C67.0293 43.72 69.8453 44.4027 72.32 45.256C74.88 46.024 77.1413 46.8773 79.104 47.816C81.152 48.7547 82.9867 49.6507 84.608 50.504L80 74.312H56.96C57.0453 73.4587 57.1307 72.3493 57.216 70.984C57.3867 69.6187 57.5147 68.2533 57.6 66.888C57.6853 65.4373 57.7707 64.0293 57.856 62.664C57.9413 61.2987 57.984 60.1467 57.984 59.208C57.984 58.5253 57.9413 57.7573 57.856 56.904C57.7707 55.9653 57.5573 55.0693 57.216 54.216C56.8747 53.3627 56.32 52.68 55.552 52.168C54.8693 51.5707 53.9307 51.272 52.736 51.272C50.5173 51.272 48.4693 52.2107 46.592 54.088C44.8 55.88 43.1787 58.312 41.728 61.384C40.2773 64.3707 38.9973 67.784 37.888 71.624C36.7787 75.464 35.84 79.3893 35.072 83.4C34.3893 87.3253 33.8347 91.208 33.408 95.048C33.0667 98.888 32.896 102.259 32.896 105.16C32.896 106.013 32.9387 107.08 33.024 108.36C33.1093 109.64 33.3653 110.877 33.792 112.072C34.2187 113.267 34.8587 114.291 35.712 115.144C36.6507 115.997 37.888 116.424 39.424 116.424C42.0693 116.424 44.6293 114.803 47.104 111.56C49.5787 108.232 51.7547 102.344 53.632 93.896H77.312L72.192 118.088ZM152.662 125H122.71L120.918 104.648H97.238L88.15 125H75.734L113.494 43.72H143.83L152.662 125ZM101.462 95.304H120.022L117.078 60.488L101.462 95.304ZM238.494 63.048C238.494 68.0827 237.086 72.7333 234.27 77C231.454 81.2667 226.803 84.5093 220.318 86.728L235.166 125H206.622L195.358 89.544H193.95L186.398 125H158.75L176.03 43.72H209.694C213.619 43.72 217.331 43.976 220.83 44.488C224.329 44.9147 227.358 45.8533 229.918 47.304C232.563 48.6693 234.654 50.632 236.19 53.192C237.726 55.6667 238.494 58.952 238.494 63.048ZM201.63 81.352C203.849 81.352 205.726 80.6267 207.262 79.176C208.883 77.64 210.163 75.8053 211.102 73.672C212.126 71.5387 212.851 69.2773 213.278 66.888C213.705 64.4133 213.918 62.28 213.918 60.488C213.918 58.2693 213.534 56.392 212.766 54.856C211.998 53.2347 210.334 52.424 207.774 52.424H202.014L195.614 81.352H201.63ZM313.577 53.448H292.969L277.737 125H250.089L265.321 53.448H244.969L247.273 43.72H315.753L313.577 53.448ZM378.432 67.272C378.688 65.992 378.816 64.2427 378.816 62.024C378.816 60.744 378.731 59.5067 378.56 58.312C378.389 57.032 378.091 55.9227 377.664 54.984C377.237 53.96 376.597 53.192 375.744 52.68C374.891 52.0827 373.781 51.784 372.416 51.784C370.88 51.784 369.472 52.1253 368.192 52.808C366.912 53.4907 365.76 54.3867 364.736 55.496C363.797 56.52 363.029 57.7573 362.432 59.208C361.92 60.5733 361.664 62.024 361.664 63.56C361.664 65.7787 362.219 67.4853 363.328 68.68C364.523 69.8747 366.059 70.856 367.936 71.624C369.813 72.392 371.947 73.032 374.336 73.544C376.725 74.056 379.2 74.6533 381.76 75.336C383.893 75.9333 386.027 76.7013 388.16 77.64C390.293 78.5787 392.171 79.8587 393.792 81.48C395.499 83.016 396.864 85.064 397.888 87.624C398.912 90.0987 399.424 93.2133 399.424 96.968C399.424 102.344 398.357 106.867 396.224 110.536C394.091 114.205 391.147 117.192 387.392 119.496C383.637 121.8 379.157 123.464 373.952 124.488C368.832 125.512 363.243 126.024 357.184 126.024C351.04 126.024 346.005 125.64 342.08 124.872C338.24 124.019 335.211 123.123 332.992 122.184C330.347 121.075 328.384 119.795 327.104 118.344L331.456 100.808H353.984C353.899 101.576 353.813 102.643 353.728 104.008C353.643 105.288 353.6 106.312 353.6 107.08C353.6 108.104 353.728 109.171 353.984 110.28C354.24 111.389 354.624 112.413 355.136 113.352C355.733 114.291 356.544 115.059 357.568 115.656C358.592 116.253 359.872 116.552 361.408 116.552C363.115 116.552 364.608 116.168 365.888 115.4C367.253 114.632 368.363 113.693 369.216 112.584C370.155 111.389 370.837 110.109 371.264 108.744C371.776 107.293 372.032 105.885 372.032 104.52C372.032 102.643 371.563 101.064 370.624 99.784C369.771 98.504 368.576 97.4373 367.04 96.584C365.504 95.6453 363.712 94.8773 361.664 94.28C359.701 93.5973 357.653 92.9147 355.52 92.232C353.472 91.6347 351.296 90.9093 348.992 90.056C346.773 89.2027 344.725 88.008 342.848 86.472C340.971 84.936 339.392 83.016 338.112 80.712C336.917 78.3227 336.32 75.2933 336.32 71.624C336.32 66.1627 337.685 61.5973 340.416 57.928C343.232 54.1733 346.731 51.144 350.912 48.84C355.179 46.536 359.829 44.9147 364.864 43.976C369.899 42.952 374.677 42.44 379.2 42.44C385.173 42.44 390.293 43.1653 394.56 44.616C398.912 45.9813 402.197 47.6027 404.416 49.48L399.68 67.272H378.432ZM474.037 125H444.085L442.293 104.648H418.613L409.525 125H397.109L434.869 43.72H465.205L474.037 125ZM422.837 95.304H441.397L438.453 60.488L422.837 95.304ZM487.121 43.72H516.305L520.657 98.76L547.281 43.72H559.953L522.065 125H491.857L487.121 43.72ZM578.648 125H551L568.28 43.72H596.056L578.648 125ZM745.994 63.048C745.994 68.0827 744.586 72.7333 741.77 77C738.954 81.2667 734.303 84.5093 727.818 86.728L742.666 125H714.122L702.858 89.544H701.45L693.898 125H666.25L683.53 43.72H717.194C721.119 43.72 724.831 43.976 728.33 44.488C731.829 44.9147 734.858 45.8533 737.418 47.304C740.063 48.6693 742.154 50.632 743.69 53.192C745.226 55.6667 745.994 58.952 745.994 63.048ZM709.13 81.352C711.349 81.352 713.226 80.6267 714.762 79.176C716.383 77.64 717.663 75.8053 718.602 73.672C719.626 71.5387 720.351 69.2773 720.778 66.888C721.205 64.4133 721.418 62.28 721.418 60.488C721.418 58.2693 721.034 56.392 720.266 54.856C719.498 53.2347 717.834 52.424 715.274 52.424H709.514L703.114 81.352H709.13Z" fill="#3A7A66"/>
</svg>
