<svg width="887" height="752" viewBox="0 0 887 752" fill="none" xmlns="http://www.w3.org/2000/svg">
<g filter="url(#filter0_i_3_203)">
<path d="M937 0H273C122.226 0 0 122.226 0 273V273C0 423.774 122.226 546 273 546H937V0Z" fill="#4B8674"/>
</g>
<g clip-path="url(#clip0_3_203)">
<path d="M56.0001 748.774H492.606V750.658H56.0001V748.774Z" fill="#3F3D56"/>
<path d="M137.481 428.335C136.64 429.323 136.017 430.477 135.65 431.721C135.284 432.966 135.183 434.274 135.353 435.56C135.524 436.846 135.963 438.083 136.641 439.188C137.32 440.294 138.222 441.245 139.292 441.98L184.477 473.024L204.374 486.297C205.504 487.051 206.874 487.357 208.217 487.156C209.561 486.955 210.781 486.261 211.641 485.209C212.143 484.596 212.505 483.881 212.704 483.113C212.902 482.346 212.931 481.545 212.79 480.765C212.649 479.986 212.34 479.246 211.885 478.597C211.43 477.949 210.839 477.407 210.155 477.009L190.883 465.811L157.25 433.758L178.871 410.519L162.855 398.499L137.481 428.335Z" fill="#A0616A"/>
<path d="M243.736 720.637H254.789L261.354 629.284L233.326 628.483L243.736 720.637Z" fill="#A0616A"/>
<path d="M242.935 750.287C245.882 751.633 248.351 740.728 250.837 743.172C257.791 750.01 268.439 751.499 277.72 748.514L274.472 748.478C275.032 748.297 275.55 748.005 275.994 747.619C276.438 747.233 276.799 746.76 277.055 746.23C277.311 745.701 277.457 745.124 277.484 744.536C277.511 743.948 277.418 743.36 277.212 742.809C276.964 742.15 276.561 741.56 276.036 741.091C275.51 740.622 274.879 740.288 274.196 740.117L266.801 738.267L255.189 717.832L243.336 717.031C240.693 720.402 238.849 724.329 237.941 728.517C237.034 732.704 237.088 737.043 238.098 741.207C239.173 745.6 240.834 749.327 242.935 750.287Z" fill="#2F2E41"/>
<path d="M170.142 720.637H181.195L187.76 629.284L158.931 623.675L170.142 720.637Z" fill="#A0616A"/>
<path d="M169.341 750.287C172.288 751.633 174.757 740.728 177.243 743.172C184.196 750.01 194.844 751.499 204.126 748.514L200.878 748.478C201.438 748.297 201.955 748.005 202.399 747.619C202.843 747.233 203.204 746.76 203.46 746.23C203.717 745.7 203.863 745.124 203.89 744.536C203.917 743.948 203.824 743.36 203.617 742.809C203.37 742.149 202.967 741.56 202.441 741.091C201.916 740.622 201.285 740.287 200.602 740.117L193.206 738.267L181.595 717.832L168.94 716.23L168.621 716.753C166.174 720.698 164.597 725.12 163.994 729.724C163.391 734.328 163.777 739.008 165.124 743.451C166.177 746.825 167.609 749.496 169.341 750.287Z" fill="#2F2E41"/>
<path d="M157.609 400.565C167.774 401.981 174.811 407.551 177.677 418.663L196.36 384.143C197.468 381.949 197.749 379.43 197.151 377.046C196.553 374.661 195.117 372.573 193.105 371.162C190.97 369.665 188.344 369.042 185.764 369.42C183.185 369.797 180.847 371.148 179.231 373.195L157.609 400.565Z" fill="#00BFA6"/>
<path d="M138.031 619.668C183.458 639.782 229.948 642.257 277.369 629.285C260.053 562.077 239.606 501.307 239.732 451.387L193.286 447.381L186.135 458.726C169.168 485.643 157.456 515.536 151.62 546.82L138.031 619.668Z" fill="#2F2E41"/>
<path d="M214.107 348.015C200.839 348.015 190.083 337.252 190.083 323.975C190.083 310.698 200.839 299.934 214.107 299.934C227.375 299.934 238.13 310.698 238.13 323.975C238.13 337.252 227.375 348.015 214.107 348.015Z" fill="#A0616A"/>
<path d="M187.68 366.445L217.309 368.048L222.114 341.604L198.091 337.598L187.68 366.445Z" fill="#A0616A"/>
<path d="M190.884 451.387L223.344 452.302L239.732 454.593C247.776 428.002 254.549 401.472 238.13 379.267L218.911 360.035L190.083 359.234L189.701 359.452C185.123 362.077 181.575 366.184 179.641 371.097C177.708 376.009 177.504 381.435 179.065 386.479C186.219 409.742 190.814 431.71 190.884 451.387Z" fill="#00BFA6"/>
<path d="M240.533 525.912L242.546 553.449C242.654 554.924 243.291 556.31 244.339 557.353C245.388 558.395 246.777 559.023 248.252 559.121C249.101 559.178 249.954 559.057 250.754 558.766C251.554 558.475 252.285 558.02 252.9 557.43C253.515 556.841 254 556.129 254.325 555.342C254.65 554.554 254.808 553.707 254.787 552.855L254.146 525.912L234.126 449.785L233.326 403.307L210.903 402.506L212.505 456.195L240.533 525.912Z" fill="#A0616A"/>
<path d="M208.501 406.512C218.007 402.644 226.886 403.94 234.927 412.122L233.826 372.88C233.687 370.426 232.669 368.104 230.958 366.34C229.248 364.576 226.96 363.488 224.512 363.275C221.915 363.049 219.33 363.825 217.286 365.445C215.242 367.064 213.895 369.405 213.52 371.986L208.501 406.512Z" fill="#00BFA6"/>
<path d="M163.256 430.953H236.929C219.742 385.412 214.2 343.045 236.929 306.746C236.539 295.843 222.564 286.392 211.712 287.436C198.896 288.669 181.673 298.094 179.272 310.753L163.256 430.953Z" fill="#2F2E41"/>
<path d="M398.048 285.434H401.409V193.316C401.409 186.314 402.787 179.381 405.464 172.913C408.142 166.444 412.067 160.567 417.014 155.616C421.961 150.665 427.835 146.738 434.299 144.058C440.763 141.379 447.692 140 454.688 140H649.721C656.717 140 663.646 141.379 670.11 144.058C676.574 146.738 682.447 150.665 687.395 155.616C692.342 160.567 696.267 166.444 698.944 172.913C701.622 179.381 703 186.314 703 193.316V698.684C703 705.686 701.622 712.619 698.944 719.087C696.267 725.556 692.342 731.433 687.395 736.384C682.447 741.335 676.574 745.262 670.11 747.942C663.646 750.621 656.717 752 649.721 752H454.688C447.692 752 440.763 750.621 434.299 747.942C427.835 745.262 421.961 741.335 417.014 736.384C412.067 731.433 408.142 725.556 405.464 719.087C402.787 712.619 401.409 705.686 401.409 698.684V351.006H398.048V285.434Z" fill="#3F3D56"/>
<path d="M452.538 153.871H477.996C476.826 156.743 476.379 159.86 476.695 162.945C477.011 166.031 478.081 168.992 479.81 171.566C481.539 174.141 483.875 176.251 486.61 177.709C489.346 179.168 492.399 179.931 495.498 179.931H607.23C610.33 179.931 613.382 179.168 616.118 177.709C618.854 176.251 621.189 174.141 622.918 171.566C624.647 168.992 625.717 166.031 626.033 162.945C626.35 159.86 625.903 156.743 624.732 153.871H648.51C653.735 153.871 658.909 154.901 663.736 156.902C668.564 158.903 672.95 161.835 676.645 165.533C680.339 169.23 683.27 173.619 685.27 178.45C687.269 183.28 688.298 188.458 688.298 193.686V698.314C688.298 703.542 687.269 708.72 685.27 713.55C683.27 718.381 680.339 722.77 676.645 726.467C672.95 730.165 668.564 733.097 663.736 735.098C658.909 737.099 653.735 738.129 648.51 738.129H452.538C447.313 738.129 442.139 737.099 437.312 735.098C432.485 733.097 428.098 730.165 424.404 726.467C420.709 722.77 417.778 718.381 415.779 713.55C413.779 708.72 412.75 703.542 412.75 698.314V193.686C412.75 183.127 416.942 172.999 424.404 165.533C431.865 158.066 441.986 153.871 452.538 153.871Z" fill="white"/>
<path d="M447.162 232.697H653.886V410.13H447.162V232.697Z" fill="#E6E6E6"/>
<path d="M592.541 447.131C584.187 447.131 577.415 440.354 577.415 431.994C577.415 423.635 584.187 416.858 592.541 416.858C600.895 416.858 607.667 423.635 607.667 431.994C607.667 440.354 600.895 447.131 592.541 447.131Z" fill="#00BFA6"/>
<path d="M584.978 430.733H591.28V424.426H593.801V430.733H600.104V433.256H593.801V439.563H591.28V433.256H584.978V430.733Z" fill="white"/>
<path d="M512.709 447.131C504.355 447.131 497.583 440.354 497.583 431.994C497.583 423.635 504.355 416.858 512.709 416.858C521.063 416.858 527.835 423.635 527.835 431.994C527.835 440.354 521.063 447.131 512.709 447.131Z" fill="#00BFA6"/>
<path d="M505.146 433.256V430.733H520.272V433.256H505.146Z" fill="white"/>
<path d="M542.814 254.826H559.151C559.725 254.826 560.276 255.054 560.682 255.461C561.088 255.867 561.316 256.418 561.316 256.993V264.169C561.316 264.743 561.088 265.295 560.682 265.701C560.276 266.108 559.725 266.336 559.151 266.336H556.443V277.087H545.521V266.336H542.814C542.24 266.336 541.689 266.108 541.283 265.701C540.876 265.295 540.648 264.743 540.648 264.169V256.993C540.648 256.418 540.876 255.867 541.283 255.461C541.689 255.054 542.24 254.826 542.814 254.826Z" fill="#00BFA6"/>
<path d="M526.451 320.495C536.456 305.845 541.571 288.403 541.063 270.666C541.054 270.257 541.187 269.857 541.439 269.534C541.691 269.212 542.046 268.987 542.445 268.897V265.797H559.699V268.854H559.937C560.169 268.854 560.399 268.9 560.614 268.99C560.829 269.079 561.024 269.21 561.188 269.374C561.352 269.539 561.482 269.735 561.571 269.95C561.66 270.165 561.705 270.395 561.705 270.628C561.705 270.671 561.703 270.714 561.7 270.757C560.341 289.717 564.931 306.721 575.47 321.767C576.076 322.632 576.386 323.67 576.353 324.726L574.466 383.123C574.421 384.425 573.874 385.66 572.941 386.569C572.008 387.478 570.76 387.992 569.457 388.002H530.433C529.115 387.991 527.854 387.466 526.918 386.539C525.982 385.611 525.445 384.355 525.421 383.037L524.694 326.338C524.672 324.257 525.286 322.219 526.451 320.495Z" fill="#3F3D56"/>
<path opacity="0.2" d="M546.22 257.164C546.22 258.404 546.712 259.593 547.588 260.47C548.465 261.347 549.653 261.84 550.893 261.84C552.132 261.84 553.32 261.347 554.197 260.47C555.073 259.593 555.565 258.404 555.565 257.164" fill="black"/>
<path d="M532.629 339.893H537.355C537.806 336.964 539.29 334.292 541.538 332.363C543.787 330.433 546.651 329.372 549.613 329.372C552.575 329.372 555.439 330.433 557.688 332.363C559.936 334.292 561.42 336.964 561.871 339.893H566.597C567.1 339.893 567.597 340.002 568.054 340.212C568.51 340.422 568.916 340.729 569.244 341.111C569.571 341.492 569.812 341.941 569.95 342.424C570.088 342.908 570.12 343.416 570.044 343.913L564.911 377.301H535.436L529.201 344.026C529.107 343.522 529.125 343.003 529.253 342.507C529.382 342.011 529.618 341.549 529.945 341.154C530.273 340.76 530.683 340.442 531.147 340.224C531.611 340.006 532.117 339.893 532.629 339.893Z" fill="#00BFA6"/>
<path d="M447.162 482.449H653.886V659.882H447.162V482.449Z" fill="#E6E6E6"/>
<path d="M592.541 696.883C584.187 696.883 577.415 690.106 577.415 681.746C577.415 673.387 584.187 666.61 592.541 666.61C600.895 666.61 607.667 673.387 607.667 681.746C607.667 690.106 600.895 696.883 592.541 696.883Z" fill="#00BFA6"/>
<path d="M584.978 680.485H591.28V674.178H593.801V680.485H600.104V683.008H593.801V689.315H591.28V683.008H584.978V680.485Z" fill="white"/>
<path d="M512.709 696.883C504.355 696.883 497.583 690.106 497.583 681.746C497.583 673.387 504.355 666.61 512.709 666.61C521.063 666.61 527.835 673.387 527.835 681.746C527.835 690.106 521.063 696.883 512.709 696.883Z" fill="#00BFA6"/>
<path d="M505.146 683.008V680.485H520.272V683.008H505.146Z" fill="white"/>
<path d="M509.828 608.501L509.714 608.501C505.822 608.533 502.01 607.391 498.776 605.224C495.542 603.056 493.036 599.964 491.585 596.349C487.012 584.779 485.942 572.119 488.507 559.944C491.071 547.769 497.158 536.619 506.009 527.88C514.86 519.142 526.085 513.202 538.285 510.8C550.484 508.398 563.121 509.64 574.62 514.372C586.12 519.103 595.974 527.116 602.957 537.41C609.94 547.705 613.742 559.828 613.89 572.269C614.038 584.711 610.526 596.921 603.791 607.379C597.055 617.838 587.394 626.083 576.011 631.088C572.473 632.655 568.544 633.116 564.739 632.41C560.935 631.704 557.433 629.864 554.691 627.132C548.812 621.217 541.821 616.526 534.121 613.328C526.421 610.131 518.165 608.49 509.828 608.501Z" fill="white"/>
<path d="M542.385 589.302C530.826 589.302 521.456 579.925 521.456 568.358C521.456 556.791 530.826 547.414 542.385 547.414C553.944 547.414 563.315 556.791 563.315 568.358C563.315 579.925 553.944 589.302 542.385 589.302Z" fill="#F9A825"/>
</g>
<defs>
<filter id="filter0_i_3_203" x="0" y="0" width="937" height="554" filterUnits="userSpaceOnUse" color-interpolation-filters="sRGB">
<feFlood flood-opacity="0" result="BackgroundImageFix"/>
<feBlend mode="normal" in="SourceGraphic" in2="BackgroundImageFix" result="shape"/>
<feColorMatrix in="SourceAlpha" type="matrix" values="0 0 0 0 0 0 0 0 0 0 0 0 0 0 0 0 0 0 127 0" result="hardAlpha"/>
<feMorphology radius="8" operator="dilate" in="SourceAlpha" result="effect1_innerShadow_3_203"/>
<feOffset dy="16"/>
<feGaussianBlur stdDeviation="8"/>
<feComposite in2="hardAlpha" operator="arithmetic" k2="-1" k3="1"/>
<feColorMatrix type="matrix" values="0 0 0 0 0.0470588 0 0 0 0 0.0470588 0 0 0 0 0.0509804 0 0 0 0.1 0"/>
<feBlend mode="normal" in2="shape" result="effect1_innerShadow_3_203"/>
</filter>
<clipPath id="clip0_3_203">
<rect width="647" height="612" fill="white" transform="matrix(-1 0 0 1 703 140)"/>
</clipPath>
</defs>
</svg>
